<svg id="mail" xmlns="http://www.w3.org/2000/svg" width="15.949" height="12.149" viewBox="0 0 15.949 12.149">
  <g id="Сгруппировать_104" data-name="Сгруппировать 104" transform="translate(0.801 0)">
    <g id="Сгруппировать_103" data-name="Сгруппировать 103">
      <path id="Контур_46" data-name="Контур 46" d="M39.467,61H26.322a1.385,1.385,0,0,0-.6.14l7.142,7.142,1.6-1.538h0l5.6-5.6A1.386,1.386,0,0,0,39.467,61Z" transform="translate(-25.721 -61)"/>
    </g>
  </g>
  <g id="Сгруппировать_106" data-name="Сгруппировать 106" transform="translate(10.536 0.801)">
    <g id="Сгруппировать_105" data-name="Сгруппировать 105">
      <path id="Контур_47" data-name="Контур 47" d="M343.486,86.728,338.213,92l5.273,5.273a1.385,1.385,0,0,0,.141-.6V87.328A1.385,1.385,0,0,0,343.486,86.728Z" transform="translate(-338.213 -86.728)"/>
    </g>
  </g>
  <g id="Сгруппировать_108" data-name="Сгруппировать 108" transform="translate(0 0.801)">
    <g id="Сгруппировать_107" data-name="Сгруппировать 107">
      <path id="Контур_48" data-name="Контур 48" d="M.14,86.721a1.386,1.386,0,0,0-.14.6v9.345a1.386,1.386,0,0,0,.14.6l5.273-5.273Z" transform="translate(0 -86.721)"/>
    </g>
  </g>
  <g id="Сгруппировать_110" data-name="Сгруппировать 110" transform="translate(0.801 6.735)">
    <g id="Сгруппировать_109" data-name="Сгруппировать 109">
      <path id="Контур_49" data-name="Контур 49" d="M34.788,277.211l-1.6,1.539a.467.467,0,0,1-.661,0l-1.539-1.539-5.273,5.273a1.386,1.386,0,0,0,.6.141H39.46a1.385,1.385,0,0,0,.6-.141Z" transform="translate(-25.714 -277.211)"/>
    </g>
  </g>
</svg>
