<svg id="phone" xmlns="http://www.w3.org/2000/svg" width="14.69" height="14.69" viewBox="0 0 14.69 14.69">
  <g id="Сгруппировать_101" data-name="Сгруппировать 101">
    <path id="Контур_44" data-name="Контур 44" d="M13.511,9.642a8.341,8.341,0,0,1-2.619-.417,1.2,1.2,0,0,0-1.164.245L8.076,10.718a9.128,9.128,0,0,1-4.1-4.1l1.21-1.609a1.187,1.187,0,0,0,.292-1.2,8.353,8.353,0,0,1-.419-2.624A1.18,1.18,0,0,0,3.877,0h-2.7A1.18,1.18,0,0,0,0,1.179,13.527,13.527,0,0,0,13.511,14.69a1.18,1.18,0,0,0,1.179-1.179v-2.69A1.18,1.18,0,0,0,13.511,9.642Z"/>
  </g>
</svg>
